<svg xmlns="http://www.w3.org/2000/svg" viewBox="0 0 467.35 77.97"><defs><style>.cls-1,.cls-2{fill:#fff;}.cls-2,.cls-3{fill-rule:evenodd;}.cls-3{fill:#7cf8fa;}</style></defs><title>Asset 1</title><g id="Layer_2" data-name="Layer 2"><g id="Layer_1-2" data-name="Layer 1"><path class="cls-1" d="M75,33.16v4.11H69.76V33.16Zm0,7.43V61.1H69.76V40.59Z"/><path class="cls-1" d="M88,37.27h3.87l.79,3.32H97.5v4.1H93.25v9.44c0,1.91.84,2.87,2.51,2.87H97.5v4.1H93.24Q88,61.1,88,55.57Z"/><path class="cls-1" d="M110,61.1V33.16h5.24l15.7,20v-20h5V61.1h-5.23l-15.7-20.39V61.1Z"/><path class="cls-1" d="M147.55,61.1l12-27.94h5.62L177.41,61.1h-5.63l-3.55-7.62h-9L161,49h5.86L162.22,38.5l-9.3,22.6Z"/><path class="cls-1" d="M205,33.16v4.5h-8.1V61.1h-5.23V37.66h-8.1v-4.5Z"/><path class="cls-1" d="M221.24,33.16V61.1H216V33.16Z"/><path class="cls-1" d="M233,47.18Q233,33,247.22,33q14,0,14,14.21t-14,14.12Q233.68,61.3,233,47.18Zm14.18,9.63q8.53,0,8.53-9.76,0-9.59-8.53-9.59-8.75,0-8.75,9.59Q238.47,56.82,247.22,56.81Z"/><path class="cls-1" d="M272.08,61.1V33.16h5.24l15.7,20v-20h5V61.1h-5.23l-15.7-20.39V61.1Z"/><path class="cls-1" d="M309.6,61.1l12-27.94h5.62L339.46,61.1h-5.63l-3.56-7.62h-9L323,49h5.86L324.27,38.5,315,61.1Z"/><path class="cls-1" d="M356.24,33.16V56.61h13.19V61.1H351V33.16Z"/><path class="cls-1" d="M21.85,51.68l11-25.31c1-2.4,2.24-5.35,3.54-9C23.34,20.27,9.24,29.24,2.71,41.33.93,39.86,0,38.56,0,37.54c0-7.75,20.26-19.85,37.52-23.36a64.41,64.41,0,0,0,2.64-8.27c.65-3.24.67-3.56.86-4.61.33-1.95,3-1.13,3-1.13A2.32,2.32,0,0,1,45.8,2.48c0,1.85-2.21,6.53-3.61,10.68a38.89,38.89,0,0,1,8-1.29c6.63,0,10,2.4,10,7.11,0,8.87-12.42,10.62-12.42,14.32,0,.64,1.13,2.13,3.08,4A76.07,76.07,0,0,1,56.38,43c2,2.39,2.9,4.61,2.9,6.64q0,6-9,11.36c-5.41,3.24-10.26,4.81-14.47,4.81-6.06,0-10.55-1.85-10.55-4.72,0-.82.66-2.21,2.06-4,2.52,2.59,6,3.88,10.27,3.88,6,0,15.59-1.93,15.59-10.34,0-2.68-2-5.63-5.88-9s-5.88-5.91-5.88-7.39c0-.65,1.12-1.85,3.26-3.51a61.82,61.82,0,0,0,6.16-4.8C53,23.78,54.14,21.85,54.14,20c0-2.86-2.06-4.24-6.26-4.24a27.12,27.12,0,0,0-6.43.64L27,50.29c-3.74,8.68-3.4,8.16-4.92,12a56.47,56.47,0,0,0-3.27,10c-.4,1.91-.69,3.11-2.39,3.25C12.85,75.25,12.85,74,13.06,72,14,68.37,14.93,67.75,21.85,51.68Z"/><path class="cls-2" d="M46.51,10.59c1.05-.6,4.27-.48,4.27-.48s2.45-4.88,3.66-6.71c.59-1.78-3.57-2.12-4-1.29S46.39,9.58,46.51,10.59Z"/><path class="cls-2" d="M26,66.41a9.72,9.72,0,0,0,3.93,1.32c-1.21,2-2,7-3,8.52a2.35,2.35,0,0,1-3.43-.76C22.25,74,25.75,66.3,26,66.41Z"/><path class="cls-3" d="M429.53,3.21A37.41,37.41,0,0,0,393.35,33c5.78-6.71,20.16-14.27,32.83-16.88.88-2.73,1.43-4,2.49-7.9.61-2.24,1-4,1.15-5Z"/><path class="cls-3" d="M392.7,43.46a37.28,37.28,0,0,0,11.64,24.33c1-2.35,2.9-6.15,7-15.86l10.39-24.16c1-2.29,2.12-5.11,3.36-8.55-12.35,2.73-26.26,12.44-32.43,24Z"/><path class="cls-3" d="M442.16,5.84c-1.14,1.75-3.34,6.31-3.34,6.31a13.61,13.61,0,0,0-3.48.18,59.13,59.13,0,0,1,3.23-7.7l.2-.41a42.21,42.21,0,0,0-4.52-.77A7.05,7.05,0,0,1,434,5c-.24,1-2.09,6.24-3.42,10.2a36.48,36.48,0,0,1,7.59-1.23c6.26,0,9.43,2.29,9.43,6.79,0,8.46-11.73,10.14-11.73,13.66,0,.62,1.06,2,2.91,3.8a74,74,0,0,1,5.2,5.46c1.86,2.29,2.74,4.41,2.74,6.35q0,5.68-8.46,10.85c-5.12,3.07-9.7,4.58-13.68,4.58-5.72,0-9.95-1.77-9.95-4.5,0-.79.61-2.11,1.94-3.79,2.37,2.47,5.64,3.71,9.7,3.71C431.92,60.84,441,59,441,51c0-2.56-1.85-5.38-5.56-8.64s-5.55-5.64-5.55-7c0-.63,1.05-1.77,3.08-3.35a57.24,57.24,0,0,0,5.82-4.59c2-2,3.09-3.88,3.09-5.64,0-2.73-1.94-4.06-5.91-4.06a25.34,25.34,0,0,0-6.08.62L416.22,50.61C412.7,58.9,413,58.4,411.58,62a56.81,56.81,0,0,0-3,9.19,36.73,36.73,0,0,0,4,2.45c0-.23.07-.46.13-.75.55-2.61,2.42-7,2.62-6.94A8.92,8.92,0,0,0,419,67.25a37.09,37.09,0,0,0-2.16,6.25,16.33,16.33,0,0,0-.48,1.91,37.38,37.38,0,1,0,26.14-70A2.81,2.81,0,0,0,442.16,5.84Z"/></g></g></svg>